<?xml version="1.0" encoding="utf-8"?>
<!-- Generator: Adobe Illustrator 21.1.0, SVG Export Plug-In . SVG Version: 6.00 Build 0)  -->
<svg version="1.1" id="svg7657" xmlns:svg="http://www.w3.org/2000/svg"
	 xmlns="http://www.w3.org/2000/svg" xmlns:xlink="http://www.w3.org/1999/xlink" x="0px" y="0px" viewBox="0 0 240 400"
	 style="enable-background:new 0 0 240 400;" xml:space="preserve">
<style type="text/css">
	.st0{fill:#FFE449;}
</style>
<path id="path7306" class="st0" d="M120,0c-9.3,10.6-15,24.4-15,39.6c0.6,33.4,4.6,66.7,5,100c0.7,31.1-8.6,60.3-19.9,88.8
	c-3.8,7.9-7.9,15.6-12,23.3l-12-2.4c-10.8-2.2-17.9-12.7-15.7-23.5c1.9-9.5,10.2-16.1,19.5-16.1l4.4,0.5l-9.8-81.6
	C61.3,92.2,42.6,60.3,15,39.6c-4.7-3.6-9.8-6.8-15-9.7v289.7h66.9c5,27.1,19.9,50.8,40.9,67c5,3.4,9.2,8,12.2,13.3
	c3-5.3,7.2-9.8,12.2-13.3c21-16.2,35.9-39.9,40.9-67H240V29.9c-5.2,2.9-10.3,6.1-15,9.7c-27.6,20.7-46.3,52.6-49.5,88.9l-9.8,81.6
	l4.4-0.5c9.3,0,17.6,6.6,19.5,16.1c2.2,10.8-4.9,21.4-15.7,23.5l-12,2.4c-4.1-7.7-8.2-15.4-12-23.3c-11.3-28.5-20.7-57.7-19.9-88.8
	c0.4-33.4,4.4-66.7,5-100C135,24.4,129.3,10.6,120,0z M20,71.7c12.9,15.2,21.6,34.1,24.2,54.9l8,67.3c-10.2,5.1-18,14.5-20.9,25.8
	H20C20,219.7,20,71.7,20,71.7z M220,71.7v148h-11.3c-2.9-11.3-10.7-20.7-20.9-25.8l8-67.3C198.4,105.8,207.1,86.8,220,71.7z
	 M120,206.9c5.4,17.6,12.8,34.3,22,49.8c-8.7,2.7-16.3,7.8-22,14.8c-5.6-6.9-13.2-12.1-22-14.8C107.2,241.2,114.6,224.5,120,206.9z
	 M20,239.7h11.3c3.6,13.8,14.3,24.7,28,28.5l9.6,2.2c-2.6,9.3-4,19.2-4,29.3H20V239.7z M208.7,239.7H220v60h-45
	c0-10.1-1.4-20-4-29.3l9.6-2.2C194.3,264.4,205.1,253.5,208.7,239.7L208.7,239.7z M88.5,275c12.1,1.7,21.5,12.1,21.5,24.7H85
	C85,291.1,86.3,282.8,88.5,275z M151.5,275c2.2,7.9,3.5,16.1,3.5,24.7h-25C130,287.1,139.4,276.7,151.5,275z M87.3,319.7H110v42.1
	C99,350.3,91,335.8,87.3,319.7z M130,319.7h22.7c-3.7,16.1-11.7,30.6-22.7,42.1V319.7z"/>
</svg>
